<svg width="20" height="20" viewBox="0 0 20 20" fill="none" xmlns="http://www.w3.org/2000/svg">
  <path d="M10 1.25C5.17 1.25 1.25 5.17 1.25 10C1.25 14.83 5.17 18.75 10 18.75C14.83 18.75 18.75 14.83 18.75 10C18.75 5.17 14.83 1.25 10 1.25ZM13.53 12.47C13.82 12.76 13.82 13.24 13.53 13.53C13.38 13.68 13.19 13.75 13 13.75C12.81 13.75 12.62 13.68 12.47 13.53L10 11.06L7.53 13.53C7.38 13.68 7.19 13.75 7 13.75C6.81 13.75 6.62 13.68 6.47 13.53C6.18 13.24 6.18 12.76 6.47 12.47L8.94 10L6.47 7.53C6.18 7.24 6.18 6.76 6.47 6.47C6.76 6.18 7.24 6.18 7.53 6.47L10 8.94L12.47 6.47C12.76 6.18 13.24 6.18 13.53 6.47C13.82 6.76 13.82 7.24 13.53 7.53L11.06 10L13.53 12.47Z" fill="currentColor"/>
</svg>
