<svg width="20" height="20" viewBox="0 0 20 20" fill="none" xmlns="http://www.w3.org/2000/svg">
  <path d="M8.93 1.79H2.15C1.95 1.79 1.79 1.95 1.79 2.14V8.93C1.79 9.13 1.95 9.29 2.15 9.29H8.93C9.13 9.29 9.29 9.13 9.29 8.93V2.14C9.29 1.95 9.13 1.79 8.93 1.79ZM7.77 7.77H3.31V3.3H7.77V7.77Z" fill="currentColor"/>
  <path d="M17.86 1.79H11.07C10.88 1.79 10.72 1.95 10.72 2.14V8.93C10.72 9.13 10.88 9.29 11.07 9.29H17.86C18.06 9.29 18.22 9.13 18.22 8.93V2.14C18.22 1.95 18.06 1.79 17.86 1.79ZM16.7 7.77H12.24V3.3H16.7V7.77Z" fill="currentColor"/>
  <path d="M8.93 10.72H2.15C1.95 10.72 1.79 10.88 1.79 11.07V17.86C1.79 18.05 1.95 18.22 2.15 18.22H8.93C9.13 18.22 9.29 18.05 9.29 17.86V11.07C9.29 10.88 9.13 10.72 8.93 10.72ZM7.77 16.7H3.31V12.23H7.77V16.7Z" fill="currentColor"/>
  <path d="M17.86 10.72H11.07C10.88 10.72 10.72 10.88 10.72 11.07V17.86C10.72 18.05 10.88 18.22 11.07 18.22H17.86C18.06 18.22 18.22 18.05 18.22 17.86V11.07C18.22 10.88 18.06 10.72 17.86 10.72ZM16.7 16.7H12.24V12.23H16.7V16.7Z" fill="currentColor"/>
</svg>
