<svg width="20" height="20" viewBox="0 0 20 20" fill="none" xmlns="http://www.w3.org/2000/svg">
  <path d="M10 3.75C5.83 3.75 2.28 6.42 1.25 10C2.28 13.58 5.83 16.25 10 16.25C14.17 16.25 17.72 13.58 18.75 10C17.72 6.42 14.17 3.75 10 3.75ZM10 14.17C7.7 14.17 5.83 12.3 5.83 10C5.83 7.7 7.7 5.83 10 5.83C12.3 5.83 14.17 7.7 14.17 10C14.17 12.3 12.3 14.17 10 14.17ZM10 7.5C8.62 7.5 7.5 8.62 7.5 10C7.5 11.38 8.62 12.5 10 12.5C11.38 12.5 12.5 11.38 12.5 10C12.5 8.62 11.38 7.5 10 7.5Z" fill="currentColor"/>
</svg>
